<svg width="48" height="48" viewBox="0 0 48 48" fill="none" xmlns="http://www.w3.org/2000/svg">
<g clip-path="url(#clip0_63777_18945)">
<g clip-path="url(#clip1_63777_18945)">
<rect width="48" height="48" rx="24" fill="white"/>
<path d="M22.001 18C22.001 16.8954 22.8964 16 24.001 16V16C25.1055 16 26.001 16.8954 26.001 18V20C26.001 21.1046 25.1055 22 24.001 22V22C22.8964 22 22.001 21.1046 22.001 20V18Z" fill="#5486DC" fill-opacity="0.5"/>
<path d="M23.9992 9.89453C21.0766 9.89453 18.4486 11.1513 16.6257 13.1542L17.9528 14.136C19.2979 12.7189 21.1306 11.7731 23.1826 11.5718V15.2733C22.1534 15.6153 21.4104 16.584 21.4104 17.7278V19.8763C21.4104 21.0202 22.1534 21.9889 23.1826 22.3309V23.9836C23.1826 24.4353 23.5475 24.8018 24.0008 24.8018C24.2266 24.8018 24.4312 24.7102 24.5801 24.5629C24.7274 24.414 24.819 24.2094 24.819 23.9836V22.3309C25.8466 21.9889 26.5895 21.0202 26.5895 19.8763V17.7278C26.5895 16.5856 25.8466 15.6169 24.819 15.2733V11.5718C29.031 11.9842 32.3348 15.5465 32.3348 19.8649V28.1351C32.3348 32.73 28.5957 36.4691 23.9992 36.4691C19.4026 36.4691 15.6652 32.73 15.6652 28.1351V25.1454C15.4181 25.2911 15.1383 25.3663 14.847 25.3663C14.5557 25.3663 14.2775 25.2911 14.0288 25.1454V28.1351C14.0288 33.6414 18.4928 38.1054 23.9992 38.1054C26.7532 38.1054 29.247 36.9894 31.0503 35.1845C32.8552 33.3813 33.9712 30.8891 33.9712 28.1351V19.8649C33.9712 14.3585 29.5072 9.89453 23.9992 9.89453ZM24.9532 17.7278V19.8763C24.9532 20.4016 24.5261 20.8287 23.9992 20.8287C23.4723 20.8287 23.0468 20.4016 23.0468 19.8763V17.7278C23.0468 17.2025 23.4739 16.7754 23.9992 16.7754C24.5244 16.7754 24.9532 17.2025 24.9532 17.7278Z" fill="#40464F"/>
<path d="M14.855 16.9472V13.7858" stroke="#5486DC" stroke-width="1.5" stroke-miterlimit="10" stroke-linecap="round" stroke-linejoin="round"/>
<path d="M16.3948 14.9983L14.855 13.7858" stroke="#5486DC" stroke-width="1.5" stroke-miterlimit="10" stroke-linecap="round" stroke-linejoin="round"/>
<path d="M14.8543 13.7858L13.3145 14.9983" stroke="#5486DC" stroke-width="1.5" stroke-miterlimit="10" stroke-linecap="round" stroke-linejoin="round"/>
<path d="M14.855 23.6711V20.5096" stroke="#5486DC" stroke-width="1.5" stroke-miterlimit="10" stroke-linecap="round" stroke-linejoin="round"/>
<path d="M14.855 23.671L16.3948 22.4585" stroke="#5486DC" stroke-width="1.5" stroke-miterlimit="10" stroke-linecap="round" stroke-linejoin="round"/>
<path d="M13.3145 22.4585L14.8543 23.671" stroke="#5486DC" stroke-width="1.5" stroke-miterlimit="10" stroke-linecap="round" stroke-linejoin="round"/>
<path d="M13.0736 18.7275H9.91211" stroke="#5486DC" stroke-width="1.5" stroke-miterlimit="10" stroke-linecap="round" stroke-linejoin="round"/>
<path d="M11.1247 17.1877L9.91211 18.7276" stroke="#5486DC" stroke-width="1.5" stroke-miterlimit="10" stroke-linecap="round" stroke-linejoin="round"/>
<path d="M9.91211 18.7275L11.1247 20.2674" stroke="#5486DC" stroke-width="1.5" stroke-miterlimit="10" stroke-linecap="round" stroke-linejoin="round"/>
<path d="M19.7948 18.7275H16.6333" stroke="#5486DC" stroke-width="1.5" stroke-miterlimit="10" stroke-linecap="round" stroke-linejoin="round"/>
<path d="M19.7946 18.7276L18.582 17.1877" stroke="#5486DC" stroke-width="1.5" stroke-miterlimit="10" stroke-linecap="round" stroke-linejoin="round"/>
<path d="M18.582 20.2674L19.7946 18.7275" stroke="#5486DC" stroke-width="1.5" stroke-miterlimit="10" stroke-linecap="round" stroke-linejoin="round"/>
</g>
<rect x="0.5" y="0.5" width="47" height="47" rx="23.5" stroke="#8B99A9"/>
</g>
<defs>
<clipPath id="clip0_63777_18945">
<path d="M0 24C0 10.7452 10.7452 0 24 0V0C37.2548 0 48 10.7452 48 24V24C48 37.2548 37.2548 48 24 48V48C10.7452 48 0 37.2548 0 24V24Z" fill="white"/>
</clipPath>
<clipPath id="clip1_63777_18945">
<rect width="48" height="48" rx="24" fill="white"/>
</clipPath>
</defs>
</svg>
