<svg width="125" height="146" viewBox="0 0 125 146" fill="none" xmlns="http://www.w3.org/2000/svg">
<path d="M30 19.7069L44.9422 34.5387C58.6455 23.1592 74.1391 29.7973 80.1729 34.5387L94.1437 19.7069C65.9593 -1.49544 39.6377 10.8726 30 19.7069Z" fill="#5474B6" fill-opacity="0.32"/>
<path d="M62 16.4L57.4 21L56 19.6L62 13.6L68 19.6L66.6 21L62 16.4Z" fill="white"/>
<path d="M103.963 30.0557L89.1416 45.0087C100.513 58.7219 93.8796 74.2267 89.1416 80.2649L103.963 94.2457C125.15 66.0409 112.791 39.7004 103.963 30.0557Z" fill="#5474B6" fill-opacity="0.32"/>
<path d="M106.6 62L102 57.4L103.4 56L109.4 62L103.4 68L102 66.6L106.6 62Z" fill="white"/>
<path d="M30 103.293L44.9422 88.4613C58.6455 99.8408 74.1391 93.2027 80.1729 88.4613L94.1437 103.293C65.9593 124.495 39.6377 112.127 30 103.293Z" fill="#5474B6" fill-opacity="0.32"/>
<path d="M62 106.6L66.6 102L68 103.4L62 109.4L56 103.4L57.4 102L62 106.6Z" fill="white"/>
<path d="M20.6985 29.998L35.5195 44.9511C24.1482 58.6643 30.7815 74.169 35.5195 80.2073L20.6985 94.1881C-0.488582 65.9833 11.8705 39.6427 20.6985 29.998Z" fill="#5474B6" fill-opacity="0.32"/>
<path d="M17.4 61.998L22 66.598L20.6 67.998L14.6 61.998L20.6 55.998L22 57.398L17.4 61.998Z" fill="white"/>
<path d="M64.0918 83.1415V64.8094C64.0918 63.3655 66.4214 61.3875 67.5862 60.5789C71.156 58.4168 78.7577 53.8216 80.6065 52.7387C82.4552 51.6557 84.2663 53.6974 84.2701 54.6565C84.2889 59.3946 84.3152 69.3332 84.2701 71.1833C84.2251 73.0334 83.1241 74.5488 82.5792 75.0753C78.3707 77.764 69.4801 83.3896 67.5862 84.3822C65.6924 85.3747 64.4675 83.9686 64.0918 83.1415Z" fill="#5474B6" fill-opacity="0.48"/>
<path d="M71.6499 77.2828V64.7676L78.5602 60.2768V62.4202L73.823 65.4989V68.5412L78.1111 65.7545V67.8979L73.823 70.6847V75.8706L71.6499 77.2828Z" fill="white"/>
<path d="M40.2929 71.9925V53.2542C40.8282 51.9157 43.0314 52.6965 44.0661 53.2542C47.0277 55.0229 53.6386 58.8758 56.39 60.1378C59.1413 61.3997 60.3705 64.3284 60.6412 65.6349C60.6094 70.4469 60.5648 80.6063 60.6412 82.7478C60.7176 84.8893 58.253 84.9572 56.9632 84.2296C53.7149 82.3972 45.6803 78.0441 43.1582 76.438C40.6362 74.8319 40.1972 72.8051 40.2929 71.9925Z" fill="#5474B6" fill-opacity="0.6"/>
<path d="M45.9155 72.6191L46.4768 61.9004L50.2583 63.7461C52.4553 64.8184 53.6349 66.8062 53.524 68.9233C53.4472 70.389 52.7856 71.1592 51.6599 71.1412L53.4918 76.317L51.2815 75.2382L49.6432 70.5365L48.112 69.7891L47.9127 73.594L45.9155 72.6191ZM48.2066 67.9829L49.618 68.6718C50.8031 69.2502 51.4043 68.9819 51.4601 67.9159C51.5167 66.8352 50.9752 65.9635 49.7901 65.3851L48.3787 64.6962L48.2066 67.9829Z" fill="white"/>
<path d="M59.0897 58.621L44.0379 50.0186C42.9339 49.055 44.5907 47.4875 45.1562 47.0507C48.5756 45.1517 56.0467 40.7177 58.7522 39.2737C61.4577 37.8297 64.6517 38.9728 65.9105 39.7248C69.5179 41.699 77.2173 45.8732 79.1562 46.7757C81.0952 47.6781 80.3023 49.6711 79.6635 50.5548C76.1125 52.5666 68.3229 56.9964 65.5724 58.621C62.8218 60.2456 60.1045 59.2979 59.0897 58.621Z" fill="#5474B6" fill-opacity="0.48"/>
<path d="M54.8517 49.7659L53.0334 48.7573L61.6434 43.7828L63.4616 44.7914L60.2383 46.6537L69.0363 51.534L66.8729 52.7839L58.075 47.9036L54.8517 49.7659Z" fill="white"/>
<rect x="8.28369" y="120" width="18" height="18" rx="2.14286" fill="#5474B6" fill-opacity="0.32"/>
<rect x="16.5789" y="124.227" width="1.41079" height="9.54558" fill="white"/>
<rect x="12.5105" y="129.705" width="1.41079" height="9.54558" transform="rotate(-90 12.5105 129.705)" fill="white"/>
<rect x="30.2837" y="127" width="64" height="3.5" fill="#5474B6" fill-opacity="0.32"/>
<rect x="32" y="124" width="24" height="10" rx="2.85714" fill="#5474B6" fill-opacity="0.32"/>
<circle cx="38" cy="129" r="2" fill="white"/>
<circle cx="44" cy="129" r="2" fill="white"/>
<circle cx="50" cy="129" r="2" fill="white"/>
<rect x="98.2837" y="120" width="18" height="18" rx="2.14286" fill="#5474B6" fill-opacity="0.32"/>
<rect x="102.51" y="129.705" width="1.41079" height="9.54558" transform="rotate(-90 102.51 129.705)" fill="white"/>
<path d="M99.4287 10.8576C99.4287 9.27967 100.708 8.00049 102.286 8.00049H113.714C115.292 8.00049 116.572 9.27967 116.572 10.8576V22.2862C116.572 23.8642 115.292 25.1433 113.714 25.1433H102.286C100.708 25.1433 99.4287 23.8642 99.4287 22.2862V10.8576Z" fill="#5474B6" fill-opacity="0.32"/>
<path d="M103.714 12.2861V15.1433H105.143L105.143 13.7147L106.571 13.7147V12.2861H103.714Z" fill="white"/>
<path d="M112.286 12.2861H109.429V13.7147L110.857 13.7147L110.857 15.1433H112.286V12.2861Z" fill="white"/>
<path d="M103.714 20.8574L106.571 20.8574L106.571 19.4289L105.143 19.4289L105.143 18.0003L103.714 18.0003L103.714 20.8574Z" fill="white"/>
<path d="M112.286 20.8574L112.286 18.0003L110.857 18.0003L110.857 19.4289L109.429 19.4289L109.429 20.8574L112.286 20.8574Z" fill="white"/>
</svg>
